<?xml version="1.0" encoding="UTF-8"?>
<svg xmlns="http://www.w3.org/2000/svg" xmlns:xlink="http://www.w3.org/1999/xlink" width="480pt" height="480pt" viewBox="0 0 480 480" version="1.1">
<g id="surface1">
<path style=" stroke:none;fill-rule:nonzero;fill:#5B5B5B;fill-opacity:1;" d="M 236.84375 0 C 210.875 0 189.472656 21.402344 189.472656 47.367188 L 126.316406 47.367188 C 100.347656 47.367188 78.949219 68.769531 78.949219 94.738281 L 78.949219 378.949219 C 78.949219 404.914063 100.347656 426.316406 126.316406 426.316406 L 252.632813 426.316406 L 252.632813 394.738281 L 126.316406 394.738281 C 117.371094 394.738281 110.527344 387.890625 110.527344 378.949219 L 110.527344 94.738281 C 110.527344 85.792969 117.371094 78.949219 126.316406 78.949219 L 157.894531 78.949219 C 157.894531 96.402344 172.019531 110.527344 189.472656 110.527344 L 284.210938 110.527344 C 301.664063 110.527344 315.789063 96.402344 315.789063 78.949219 L 347.367188 78.949219 C 356.3125 78.949219 363.15625 85.792969 363.15625 94.738281 L 363.15625 205.261719 L 394.738281 205.261719 L 394.738281 94.738281 C 394.738281 68.769531 373.335938 47.367188 347.367188 47.367188 L 284.210938 47.367188 C 284.210938 21.402344 262.808594 0 236.84375 0 Z M 236.84375 31.578125 C 245.722656 31.578125 252.632813 38.488281 252.632813 47.367188 C 252.632813 56.25 245.722656 63.15625 236.84375 63.15625 C 227.960938 63.15625 221.050781 56.25 221.050781 47.367188 C 221.050781 38.488281 227.960938 31.578125 236.84375 31.578125 Z M 221.050781 142.105469 L 221.050781 205.261719 L 284.210938 205.261719 C 284.210938 170.355469 255.960938 142.105469 221.050781 142.105469 Z M 205.261719 157.894531 C 170.355469 157.894531 142.105469 186.144531 142.105469 221.050781 C 142.105469 255.960938 170.355469 284.210938 205.261719 284.210938 C 240.171875 284.210938 268.421875 255.960938 268.421875 221.050781 L 205.261719 221.050781 Z M 315.789063 236.84375 C 298.335938 236.84375 284.210938 250.964844 284.210938 268.421875 L 284.210938 442.105469 C 284.210938 459.558594 298.335938 473.683594 315.789063 473.683594 L 442.105469 473.683594 C 459.558594 473.683594 473.683594 459.558594 473.683594 442.105469 L 473.683594 268.359375 C 473.683594 250.90625 459.621094 236.84375 442.167969 236.84375 C 368.152344 236.902344 315.789063 236.84375 315.789063 236.84375 Z M 315.789063 268.421875 L 442.105469 268.421875 L 442.105469 315.789063 L 315.789063 315.789063 Z M 157.894531 315.789063 C 149.199219 315.789063 142.105469 322.882813 142.105469 331.578125 C 142.105469 340.277344 149.199219 347.367188 157.894531 347.367188 L 252.632813 347.367188 L 252.632813 315.789063 Z M 331.578125 363.15625 C 340.277344 363.15625 347.367188 370.25 347.367188 378.949219 C 347.367188 387.644531 340.277344 394.738281 331.578125 394.738281 C 322.882813 394.738281 315.789063 387.644531 315.789063 378.949219 C 315.789063 370.25 322.882813 363.15625 331.578125 363.15625 Z M 378.949219 363.15625 C 387.644531 363.15625 394.738281 370.25 394.738281 378.949219 C 394.738281 387.644531 387.644531 394.738281 378.949219 394.738281 C 370.25 394.738281 363.15625 387.644531 363.15625 378.949219 C 363.15625 370.25 370.25 363.15625 378.949219 363.15625 Z M 426.316406 363.15625 C 435.011719 363.15625 442.105469 370.25 442.105469 378.949219 L 442.105469 426.316406 C 442.105469 435.011719 435.011719 442.105469 426.316406 442.105469 C 417.621094 442.105469 410.527344 435.011719 410.527344 426.316406 L 410.527344 378.949219 C 410.527344 370.25 417.621094 363.15625 426.316406 363.15625 Z M 331.578125 410.527344 C 340.277344 410.527344 347.367188 417.621094 347.367188 426.316406 C 347.367188 435.011719 340.277344 442.105469 331.578125 442.105469 C 322.882813 442.105469 315.789063 435.011719 315.789063 426.316406 C 315.789063 417.621094 322.882813 410.527344 331.578125 410.527344 Z M 378.949219 410.527344 C 387.644531 410.527344 394.738281 417.621094 394.738281 426.316406 C 394.738281 435.011719 387.644531 442.105469 378.949219 442.105469 C 370.25 442.105469 363.15625 435.011719 363.15625 426.316406 C 363.15625 417.621094 370.25 410.527344 378.949219 410.527344 Z "/>
</g>
</svg>
