<?xml version="1.0" standalone="no"?>
<!DOCTYPE svg PUBLIC "-//W3C//DTD SVG 20010904//EN"
 "http://www.w3.org/TR/2001/REC-SVG-20010904/DTD/svg10.dtd">
<svg version="1.0" xmlns="http://www.w3.org/2000/svg"
 width="1600.000000pt" height="1600.000000pt" viewBox="0 0 1600.000000 1600.000000"
 preserveAspectRatio="xMidYMid meet">
<metadata>
Created by potrace 1.16, written by Peter Selinger 2001-2019
</metadata>
<g transform="translate(0.000000,1600.000000) scale(0.100000,-0.100000)"
fill="#000000" stroke="none">
<path d="M1500 13500 l0 -500 6500 0 6500 0 0 500 0 500 -6500 0 -6500 0 0
-500z"/>
<path d="M3000 12250 l0 -250 -750 0 -750 0 0 -500 0 -500 6500 0 6500 0 0
500 0 500 -750 0 -750 0 0 250 0 250 -500 0 -500 0 0 -250 0 -250 -4000 0
-4000 0 0 250 0 250 -500 0 -500 0 0 -250z"/>
<path d="M3000 10250 l0 -250 -750 0 -750 0 0 -500 0 -500 6500 0 6500 0 0
500 0 500 -750 0 -750 0 0 250 0 250 -500 0 -500 0 0 -250 0 -250 -4000 0
-4000 0 0 250 0 250 -500 0 -500 0 0 -250z"/>
<path d="M3000 5250 l0 -3250 5000 0 5000 0 0 3250 0 3250 -500 0 -500 0 0
-2750 0 -2750 -4000 0 -4000 0 0 2750 0 2750 -500 0 -500 0 0 -3250z"/>
<path d="M13884 8487 c-142 -47 -269 -158 -337 -295 -41 -84 -42 -87 -42 -192
0 -105 1 -108 42 -192 58 -116 145 -203 261 -261 84 -41 87 -42 192 -42 105 0
108 1 192 42 116 58 203 145 261 261 41 84 42 87 42 192 0 105 -1 108 -42 192
-58 116 -145 203 -261 260 -77 39 -91 42 -175 45 -57 2 -107 -2 -133 -10z"/>
<path d="M7724 7941 c-148 -142 -678 -669 -1179 -1170 l-910 -911 363 -362
362 -363 570 570 570 570 0 -1138 0 -1137 500 0 500 0 0 1137 0 1138 570 -570
570 -570 362 363 363 362 -910 911 c-855 856 -1439 1429 -1455 1429 -4 0 -128
-117 -276 -259z"/>
<path d="M13884 6987 c-142 -47 -269 -158 -337 -295 -41 -84 -42 -87 -42 -192
0 -105 1 -108 42 -192 58 -116 145 -203 261 -261 84 -41 87 -42 192 -42 105 0
108 1 192 42 116 58 203 145 261 261 41 84 42 87 42 192 0 105 -1 108 -42 192
-58 116 -145 203 -261 260 -77 39 -91 42 -175 45 -57 2 -107 -2 -133 -10z"/>
<path d="M13884 5487 c-142 -47 -269 -158 -337 -295 -41 -84 -42 -87 -42 -192
0 -105 1 -108 42 -192 58 -116 145 -203 261 -261 84 -41 87 -42 192 -42 105 0
108 1 192 42 116 58 203 145 261 261 41 84 42 87 42 192 0 105 -1 108 -42 192
-58 116 -145 203 -261 260 -77 39 -91 42 -175 45 -57 2 -107 -2 -133 -10z"/>
<path d="M13884 3987 c-142 -47 -269 -158 -337 -295 -41 -84 -42 -87 -42 -192
0 -105 1 -108 42 -192 58 -116 145 -203 261 -261 84 -41 87 -42 192 -42 105 0
108 1 192 42 116 58 203 145 261 261 41 84 42 87 42 192 0 105 -1 108 -42 192
-58 116 -145 203 -261 260 -77 39 -91 42 -175 45 -57 2 -107 -2 -133 -10z"/>
</g>
</svg>
