<svg height="512pt" viewBox="-26 0 512 512" width="512pt" xmlns="http://www.w3.org/2000/svg"><path d="m364.347656 63-44.347656 27.242188v-.242188c0-49.625-40.375-90-90-90s-90 40.375-90 90v110.8125l-55.652344 34.1875h-84.347656v40h95.652344l44.347656-27.242188v40.429688c-25.535156 24.472656-40 58.148438-40 93.8125 0 71.683594 58.316406 130 130 130s130-58.316406 130-130c0-35.664062-14.464844-69.339844-40-93.8125v-151l55.652344-34.1875h84.347656v-40zm-184.347656 27c0-27.570312 22.429688-50 50-50s50 22.429688 50 50v24.8125l-100 61.429688zm70 292c0 11.027344-8.972656 20-20 20s-20-8.972656-20-20 8.972656-20 20-20 20 8.972656 20 20zm37.265625-69.4375c20.800781 17.183594 32.734375 42.492188 32.734375 69.4375 0 49.625-40.375 90-90 90s-90-40.375-90-90c0-26.945312 11.933594-52.253906 32.734375-69.4375l7.265625-6v-83.375l30-18.429688v120.683594c-23.277344 8.253906-40 30.484375-40 56.558594 0 33.085938 26.914062 60 60 60s60-26.914062 60-60c0-26.074219-16.722656-48.304688-40-56.558594v-145.253906l30-18.429688v144.804688zm0 0"/></svg>