<svg xmlns="http://www.w3.org/2000/svg" width="640" height="640" viewBox="0 0 480 480"><path d="M236.844 0c-25.969 0-47.371 21.402-47.371 47.367h-63.157c-25.968 0-47.367 21.403-47.367 47.371V378.95c0 25.965 21.399 47.367 47.367 47.367h126.317v-31.578H126.316c-8.945 0-15.789-6.847-15.789-15.789V94.74c0-8.946 6.844-15.79 15.79-15.79h31.578c0 17.453 14.125 31.578 31.578 31.578h94.738c17.453 0 31.578-14.125 31.578-31.578h31.578c8.945 0 15.79 6.844 15.79 15.79v110.523h31.581V94.738c0-25.968-21.402-47.37-47.37-47.37H284.21C284.21 21.401 262.809 0 236.844 0zm0 31.578c8.879 0 15.789 6.91 15.789 15.79 0 8.882-6.91 15.788-15.79 15.788-8.882 0-15.792-6.906-15.792-15.789 0-8.879 6.91-15.789 15.793-15.789zM221.05 142.105v63.157h63.16c0-34.907-28.25-63.157-63.16-63.157zm-15.79 15.79c-34.906 0-63.156 28.25-63.156 63.156 0 34.91 28.25 63.16 63.157 63.16 34.91 0 63.16-28.25 63.16-63.16h-63.16zm110.528 78.949c-17.453 0-31.578 14.12-31.578 31.578v173.683c0 17.454 14.125 31.579 31.578 31.579h126.316c17.454 0 31.579-14.125 31.579-31.579V268.36c0-17.453-14.063-31.515-31.516-31.515-74.016.058-126.379 0-126.379 0zm0 31.578h126.316v47.367H315.79zm-157.894 47.367c-8.696 0-15.79 7.094-15.79 15.79 0 8.698 7.094 15.788 15.79 15.788h94.738V315.79zm173.683 47.367c8.7 0 15.79 7.094 15.79 15.793 0 8.696-7.09 15.79-15.79 15.79-8.695 0-15.789-7.094-15.789-15.79 0-8.699 7.094-15.793 15.79-15.793zm47.371 0c8.696 0 15.79 7.094 15.79 15.793 0 8.696-7.094 15.79-15.79 15.79-8.699 0-15.793-7.094-15.793-15.79 0-8.699 7.094-15.793 15.793-15.793zm47.367 0c8.696 0 15.79 7.094 15.79 15.793v47.367c0 8.696-7.094 15.79-15.79 15.79-8.695 0-15.789-7.094-15.789-15.79V378.95c0-8.699 7.094-15.793 15.79-15.793zm-94.738 47.371c8.7 0 15.79 7.094 15.79 15.79 0 8.695-7.09 15.788-15.79 15.788-8.695 0-15.789-7.093-15.789-15.789 0-8.695 7.094-15.789 15.79-15.789zm47.371 0c8.696 0 15.79 7.094 15.79 15.79 0 8.695-7.094 15.788-15.79 15.788-8.699 0-15.793-7.093-15.793-15.789 0-8.695 7.094-15.789 15.793-15.789z" fill="#5b5b5b"/></svg>