<svg version="1.0" xmlns="http://www.w3.org/2000/svg" width="2133.333" height="2133.333" viewBox="0 0 1600 1600"><path d="M150 250v50h1300V200H150v50zm150 125v25H150v100h1300V400h-150v-50h-100v50H400v-50H300v25zm0 200v25H150v100h1300V600h-150v-50h-100v50H400v-50H300v25zm0 500v325h1000V750h-100v550H400V750H300v325zm1088.4-323.7c-14.2 4.7-26.9 15.8-33.7 29.5-4.1 8.4-4.2 8.7-4.2 19.2s.1 10.8 4.2 19.2c5.8 11.6 14.5 20.3 26.1 26.1 8.4 4.1 8.7 4.2 19.2 4.2s10.8-.1 19.2-4.2c11.6-5.8 20.3-14.5 26.1-26.1 4.1-8.4 4.2-8.7 4.2-19.2s-.1-10.8-4.2-19.2c-5.8-11.6-14.5-20.3-26.1-26-7.7-3.9-9.1-4.2-17.5-4.5-5.7-.2-10.7.2-13.3 1z"/><path d="M772.4 805.9c-14.8 14.2-67.8 66.9-117.9 117l-91 91.1 36.3 36.2 36.2 36.3 57-57 57-57V1200h100V972.5l57 57 57 57 36.2-36.3 36.3-36.2-91-91.1C860 837.3 801.6 780 800 780c-.4 0-12.8 11.7-27.6 25.9zm616 95.4c-14.2 4.7-26.9 15.8-33.7 29.5-4.1 8.4-4.2 8.7-4.2 19.2s.1 10.8 4.2 19.2c5.8 11.6 14.5 20.3 26.1 26.1 8.4 4.1 8.7 4.2 19.2 4.2s10.8-.1 19.2-4.2c11.6-5.8 20.3-14.5 26.1-26.1 4.1-8.4 4.2-8.7 4.2-19.2s-.1-10.8-4.2-19.2c-5.8-11.6-14.5-20.3-26.1-26-7.7-3.9-9.1-4.2-17.5-4.5-5.7-.2-10.7.2-13.3 1zm0 150c-14.2 4.7-26.9 15.8-33.7 29.5-4.1 8.4-4.2 8.7-4.2 19.2s.1 10.8 4.2 19.2c5.8 11.6 14.5 20.3 26.1 26.1 8.4 4.1 8.7 4.2 19.2 4.2s10.8-.1 19.2-4.2c11.6-5.8 20.3-14.5 26.1-26.1 4.1-8.4 4.2-8.7 4.2-19.2s-.1-10.8-4.2-19.2c-5.8-11.6-14.5-20.3-26.1-26-7.7-3.9-9.1-4.2-17.5-4.5-5.7-.2-10.7.2-13.3 1zm0 150c-14.2 4.7-26.9 15.8-33.7 29.5-4.1 8.4-4.2 8.7-4.2 19.2s.1 10.8 4.2 19.2c5.8 11.6 14.5 20.3 26.1 26.1 8.4 4.1 8.7 4.2 19.2 4.2s10.8-.1 19.2-4.2c11.6-5.8 20.3-14.5 26.1-26.1 4.1-8.4 4.2-8.7 4.2-19.2s-.1-10.8-4.2-19.2c-5.8-11.6-14.5-20.3-26.1-26-7.7-3.9-9.1-4.2-17.5-4.5-5.7-.2-10.7.2-13.3 1z"/></svg>