<svg height="512pt" viewBox="-26 0 512 512" width="512pt" xmlns="http://www.w3.org/2000/svg"><path d="M364.348 63L320 90.242V90c0-49.625-40.375-90-90-90s-90 40.375-90 90v110.813L84.348 235H0v40h95.652L140 247.758v40.43c-25.535 24.472-40 58.148-40 93.812 0 71.684 58.316 130 130 130s130-58.316 130-130c0-35.664-14.465-69.34-40-93.813v-151L375.652 103H460V63zM180 90c0-27.57 22.43-50 50-50s50 22.43 50 50v24.813l-100 61.43zm70 292c0 11.027-8.973 20-20 20s-20-8.973-20-20 8.973-20 20-20 20 8.973 20 20zm37.266-69.438C308.066 329.747 320 355.055 320 382c0 49.625-40.375 90-90 90s-90-40.375-90-90c0-26.945 11.934-52.254 32.734-69.438l7.266-6v-83.375l30-18.43v120.684c-23.277 8.254-40 30.485-40 56.559 0 33.086 26.914 60 60 60s60-26.914 60-60c0-26.074-16.723-48.305-40-56.559V180.188l30-18.43v144.805zm0 0"/></svg>